<svg xmlns="http://www.w3.org/2000/svg" width="453" height="129" viewBox="0 0 453 129">
<g>
<path d="M 220.00 101.07 C220.00,100.55 221.23,99.99 222.73,99.82 C227.63,99.25 227.97,97.06 227.97,66.50 C227.97,35.94 227.63,33.75 222.73,33.18 C221.23,33.01 220.00,32.40 220.00,31.84 C220.00,31.16 226.17,30.93 238.25,31.18 C254.83,31.52 256.89,31.75 260.75,33.79 C275.20,41.43 273.63,62.65 258.03,70.53 C255.87,71.62 251.27,72.46 245.78,72.78 L 237.00 73.28 L 237.00 84.64 C237.00,94.67 237.23,96.23 239.00,98.00 C240.11,99.11 242.33,100.00 244.00,100.00 C245.65,100.00 247.00,100.45 247.00,101.00 C247.00,101.62 241.83,102.00 233.50,102.00 C225.81,102.00 220.00,101.60 220.00,101.07 ZM 370.00 119.30 C362.45,116.57 359.05,112.58 360.46,108.12 C361.35,105.33 366.70,101.00 369.27,101.00 L 371.38 101.00 L 369.27 102.97 C364.57,107.34 365.68,113.67 371.64,116.50 C375.96,118.55 387.52,118.65 392.25,116.67 C399.32,113.72 402.38,105.47 397.92,101.42 C396.24,99.91 393.63,99.42 384.67,98.93 C378.52,98.59 372.68,97.96 371.67,97.52 C366.58,95.31 367.79,86.58 373.76,82.52 L 377.34 80.08 L 374.61 79.04 C373.10,78.47 371.50,78.00 371.04,78.00 C370.58,78.00 368.81,76.41 367.10,74.47 C364.32,71.30 364.00,70.27 364.00,64.50 C364.00,58.80 364.34,57.69 366.95,54.71 C372.20,48.73 382.31,47.31 390.42,51.41 L 395.18 53.82 L 398.73 51.41 C400.68,50.08 403.50,49.00 404.98,49.00 C410.03,49.00 412.86,55.00 409.43,58.43 C406.00,61.85 402.00,59.63 402.00,54.30 C402.00,50.32 400.84,50.12 398.09,53.61 C396.45,55.69 396.26,56.62 397.13,58.25 C397.73,59.36 398.03,62.94 397.79,66.19 C397.26,73.61 394.00,77.32 386.50,79.07 C379.87,80.62 376.81,82.29 375.05,85.31 C373.84,87.39 373.82,88.08 374.92,89.40 C375.96,90.65 378.24,91.00 385.37,91.01 C390.39,91.01 396.16,91.47 398.19,92.03 C402.71,93.29 407.00,98.15 407.00,102.01 C407.00,113.23 396.77,120.07 380.21,119.92 C375.42,119.88 370.83,119.60 370.00,119.30 ZM 74.00 101.00 C74.00,100.45 74.90,100.00 76.00,100.00 C77.10,100.00 78.92,99.08 80.04,97.96 C82.02,95.98 82.07,95.00 81.79,63.06 C81.52,32.38 81.37,30.07 79.60,28.10 C78.55,26.95 76.86,26.00 75.85,26.00 C74.83,26.00 74.00,25.55 74.00,25.00 C74.00,24.45 76.42,24.00 79.38,24.00 C82.33,24.00 86.16,23.72 87.88,23.38 L 91.00 22.75 L 91.00 60.30 L 93.25 56.99 C96.60,52.06 100.29,49.77 105.70,49.25 C112.13,48.64 117.33,50.84 119.65,55.17 C121.13,57.93 121.53,61.91 121.97,78.29 C122.53,99.07 122.74,99.95 127.25,99.98 C128.21,99.99 129.00,100.45 129.00,101.00 C129.00,101.61 124.50,102.00 117.50,102.00 C111.07,102.00 106.00,101.59 106.00,101.07 C106.00,100.56 107.00,100.00 108.22,99.82 C112.20,99.25 112.97,95.71 112.98,78.00 C112.99,60.45 112.07,54.64 109.02,53.01 C103.65,50.13 96.00,53.59 92.96,60.27 C91.33,63.87 91.04,66.89 91.02,80.68 C91.00,94.07 91.27,97.13 92.57,98.43 C93.44,99.29 94.79,100.00 95.57,100.00 C96.36,100.00 97.00,100.45 97.00,101.00 C97.00,101.61 92.50,102.00 85.50,102.00 C78.50,102.00 74.00,101.61 74.00,101.00 ZM 140.48 100.60 C136.98,99.08 135.00,95.40 135.00,90.40 C135.00,83.04 139.32,79.27 153.83,74.00 C161.98,71.03 163.48,68.85 162.63,61.22 C161.75,53.41 158.70,50.58 151.85,51.24 C149.22,51.49 146.41,52.25 145.60,52.92 C144.33,53.97 144.39,54.39 146.07,56.07 C148.50,58.50 148.55,62.19 146.17,64.35 C140.46,69.51 133.47,60.53 138.95,55.05 C143.03,50.97 147.22,49.54 155.18,49.52 C161.42,49.50 163.38,49.89 165.68,51.59 C170.76,55.35 171.33,57.88 171.81,78.83 C172.29,99.37 172.71,100.91 177.12,98.16 C179.38,96.75 180.00,96.71 180.00,97.97 C180.00,99.59 174.34,102.00 170.55,102.00 C166.46,102.00 163.00,99.16 163.00,95.80 C163.00,93.73 162.81,93.79 159.75,96.74 C154.31,101.99 147.01,103.45 140.48,100.60 ZM 317.00 101.25 C311.33,98.41 310.66,95.81 310.05,74.17 C309.55,56.54 309.33,54.71 307.56,53.42 C306.49,52.64 305.03,52.00 304.31,52.00 C303.59,52.00 303.00,51.55 303.00,51.00 C303.00,50.45 305.59,49.99 308.75,49.99 C311.91,49.98 315.48,49.71 316.67,49.39 L 318.84 48.81 L 319.17 72.49 C319.50,95.99 319.52,96.19 321.86,98.09 C326.83,102.11 334.74,99.00 338.04,91.73 C339.67,88.14 339.96,85.11 339.98,71.75 C340.00,57.32 339.83,55.83 338.00,54.00 C336.90,52.90 335.33,52.00 334.50,52.00 C333.67,52.00 333.00,51.55 333.00,51.00 C333.00,50.45 335.59,49.99 338.75,49.99 C341.91,49.98 345.49,49.71 346.70,49.38 L 348.90 48.79 L 349.20 72.29 C349.47,93.76 349.67,95.98 351.40,97.90 C352.45,99.05 354.14,100.00 355.15,100.00 C356.17,100.00 357.00,100.45 357.00,101.00 C357.00,101.56 354.24,102.01 350.75,102.01 C347.31,102.02 343.49,102.30 342.25,102.63 C340.12,103.20 340.00,102.94 339.98,97.87 L 339.97 92.50 L 337.92 95.69 C335.50,99.47 328.74,103.00 323.93,103.00 C322.05,103.00 318.93,102.21 317.00,101.25 ZM 32.50 102.06 C27.32,100.80 21.44,97.26 18.01,93.36 C5.94,79.61 6.59,52.52 19.32,39.16 C23.99,34.26 31.42,30.82 38.59,30.24 C45.45,29.69 50.57,30.97 56.34,34.68 C60.63,37.44 62.69,37.20 63.17,33.89 C63.35,32.66 64.06,31.47 64.75,31.24 C65.70,30.93 66.00,33.60 66.00,42.42 C66.00,51.44 65.70,54.00 64.66,54.00 C63.84,54.00 62.82,51.75 62.03,48.25 C58.17,30.96 35.66,26.14 25.86,40.51 C21.57,46.81 19.62,55.05 19.59,67.00 C19.55,87.13 27.02,99.53 39.91,100.77 C52.02,101.93 60.68,95.02 62.52,82.73 C62.97,79.70 63.73,78.00 64.61,78.00 C65.72,78.00 66.00,80.45 66.00,90.08 C66.00,99.30 65.70,102.07 64.75,101.76 C64.06,101.53 63.35,100.34 63.17,99.11 C62.70,95.91 60.52,95.49 57.10,97.93 C50.74,102.46 40.89,104.11 32.50,102.06 ZM 275.00 101.12 C275.00,100.64 276.36,99.98 278.02,99.65 C280.07,99.24 281.36,98.19 282.06,96.35 C282.70,94.66 282.97,81.86 282.79,61.94 C282.52,32.37 282.37,30.06 280.60,28.10 C279.55,26.95 277.86,26.00 276.85,26.00 C275.83,26.00 275.00,25.55 275.00,25.00 C275.00,24.45 277.42,24.00 280.38,24.00 C283.33,24.00 287.16,23.72 288.88,23.38 L 292.00 22.75 L 292.00 59.72 C292.00,94.27 292.12,96.80 293.83,98.35 C294.83,99.26 296.41,100.00 297.33,100.00 C298.25,100.00 299.00,100.45 299.00,101.00 C299.00,101.61 294.33,102.00 287.00,102.00 C280.40,102.00 275.00,101.61 275.00,101.12 ZM 252.02 69.37 C258.04,66.96 260.48,61.82 260.48,51.50 C260.47,42.07 258.43,37.51 252.97,34.75 C248.53,32.51 241.25,32.46 238.83,34.65 C237.19,36.14 237.00,38.12 237.00,53.65 L 237.00 71.00 L 242.48 71.00 C245.49,71.00 249.79,70.27 252.02,69.37 ZM 196.76 101.43 C191.33,98.48 190.64,95.48 190.19,72.75 L 189.77 52.00 L 185.39 52.00 C182.97,52.00 181.00,51.55 181.00,51.00 C181.00,50.45 183.01,50.00 185.46,50.00 L 189.92 50.00 L 190.21 42.25 L 190.50 34.50 L 194.75 33.93 L 199.00 33.37 L 199.00 50.00 L 206.50 50.00 C210.83,50.00 214.00,50.42 214.00,51.00 C214.00,51.58 210.83,52.00 206.50,52.00 L 199.00 52.00 L 199.01 72.25 C199.03,93.03 199.52,96.06 203.20,98.36 C206.17,100.22 210.27,97.98 212.50,93.29 C214.95,88.13 217.31,87.41 215.93,92.25 C213.32,101.42 204.51,105.64 196.76,101.43 ZM 385.95 75.82 C388.47,73.12 389.37,68.53 388.79,61.45 C388.09,53.05 382.88,48.85 377.04,51.98 C371.77,54.80 371.55,72.81 376.74,76.75 C379.28,78.68 383.70,78.24 385.95,75.82 ZM 159.12 94.12 L 163.00 90.24 L 163.00 81.12 C163.00,76.10 162.86,72.00 162.69,72.00 C162.52,72.00 158.80,73.91 154.44,76.25 C148.14,79.62 146.12,81.27 144.67,84.25 C141.31,91.12 144.79,98.00 151.62,98.00 C154.49,98.00 156.04,97.20 159.12,94.12 Z" fill="rgba(0,0,0,1)"/>
<path d="M 423.32 102.99 C420.39,101.81 419.00,98.96 419.00,94.14 C419.00,91.02 419.57,89.69 421.63,88.07 C426.03,84.62 434.39,85.57 437.72,89.91 C440.19,93.14 438.81,99.86 435.09,102.72 C433.26,104.12 426.51,104.28 423.32,102.99 ZM 429.02 70.25 C429.03,65.44 428.08,52.50 426.91,41.50 C424.62,19.97 424.96,15.04 429.03,10.97 C433.32,6.68 440.79,7.77 443.55,13.09 C446.01,17.85 445.21,24.08 439.62,43.68 C436.66,54.06 433.71,65.25 433.08,68.53 C431.15,78.48 431.00,79.00 429.98,79.00 C429.41,79.00 429.01,75.32 429.02,70.25 Z" fill="rgba(202,241,60,1)"/>
</g>
</svg>